<?xml version="1.0" encoding="UTF-8" standalone="no"?>
<!DOCTYPE svg PUBLIC "-//W3C//DTD SVG 1.1//EN"
 "http://www.w3.org/Graphics/SVG/1.1/DTD/svg11.dtd">
<!-- Generated by graphviz version 2.38.0 (20140413.2041)
 -->
<!-- Title: G Pages: 1 -->
<svg width="460pt" height="1066pt"
 viewBox="0.00 0.00 460.00 1066.49" xmlns="http://www.w3.org/2000/svg" xmlns:xlink="http://www.w3.org/1999/xlink">
<g id="graph0" class="graph" transform="scale(1 1) rotate(0) translate(4 1062.49)">
<title>G</title><style>.edge>path:hover{stroke-width:8}</style>
<polygon fill="white" stroke="none" points="-4,4 -4,-1062.49 456,-1062.49 456,4 -4,4"/>
<g id="clust1" class="cluster"><title>cluster_main</title><style>.edge>path:hover{stroke-width:8}</style>
<polygon fill="none" stroke="black" points="352,-366.224 352,-441.224 444,-441.224 444,-366.224 352,-366.224"/>
<text text-anchor="middle" x="398" y="-426.024" font-family="Times New Roman,serif" font-size="14.00">main</text>
</g>
<g id="clust2" class="cluster"><title>cluster_suite2p</title><style>.edge>path:hover{stroke-width:8}</style>
<polygon fill="none" stroke="black" points="8,-8 8,-1050.49 344,-1050.49 344,-8 8,-8"/>
<text text-anchor="middle" x="176" y="-1035.29" font-family="Times New Roman,serif" font-size="14.00">suite2p</text>
</g>
<!-- __main__ -->
<g id="node1" class="node"><title>__main__</title><style>.edge>path:hover{stroke-width:8}</style>
<polygon fill="#633535" stroke="black" points="435.686,-384.768 435.686,-399.68 413.61,-410.224 382.39,-410.224 360.314,-399.68 360.314,-384.768 382.39,-374.224 413.61,-374.224 435.686,-384.768"/>
<text text-anchor="middle" x="398" y="-389.724" font-family="Helvetica,sans-Serif" font-size="10.00" fill="#ffffff">__main__</text>
</g>
<!-- suite2p_gui_reggui -->
<g id="node2" class="node"><title>suite2p_gui_reggui</title><style>.edge>path:hover{stroke-width:8}</style>
<polygon fill="#208383" stroke="black" points="336.067,-596.958 336.067,-622.855 313.182,-641.167 280.818,-641.167 257.933,-622.855 257.933,-596.958 280.818,-578.646 313.182,-578.646 336.067,-596.958"/>
<text text-anchor="middle" x="297" y="-618.406" font-family="Helvetica,sans-Serif" font-size="10.00" fill="#ffffff">suite2p.</text>
<text text-anchor="middle" x="297" y="-607.406" font-family="Helvetica,sans-Serif" font-size="10.00" fill="#ffffff">gui.</text>
<text text-anchor="middle" x="297" y="-596.406" font-family="Helvetica,sans-Serif" font-size="10.00" fill="#ffffff">reggui</text>
</g>
<!-- suite2p_gui_reggui&#45;&gt;__main__ -->
<g id="edge13" class="edge"><title>suite2p_gui_reggui&#45;&gt;__main__</title><style>.edge>path:hover{stroke-width:8}</style>
<path fill="none" stroke="black" d="M343.527,-509.55C353.126,-489.051 362.918,-468.141 371.503,-449.807"/>
<polygon fill="#000000" stroke="black" points="374.695,-451.243 375.767,-440.703 368.356,-448.275 374.695,-451.243"/>
</g>
<!-- suite2p_registration_rigid -->
<g id="node3" class="node"><title>suite2p_registration_rigid</title><style>.edge>path:hover{stroke-width:8}</style>
<polygon fill="#2fbcbc" stroke="black" points="326.09,-975.16 326.09,-1001.06 295.576,-1019.37 252.424,-1019.37 221.91,-1001.06 221.91,-975.16 252.424,-956.848 295.576,-956.848 326.09,-975.16"/>
<text text-anchor="middle" x="274" y="-996.608" font-family="Helvetica,sans-Serif" font-size="10.00" fill="#000000">suite2p.</text>
<text text-anchor="middle" x="274" y="-985.608" font-family="Helvetica,sans-Serif" font-size="10.00" fill="#000000">registration.</text>
<text text-anchor="middle" x="274" y="-974.608" font-family="Helvetica,sans-Serif" font-size="10.00" fill="#000000">rigid</text>
</g>
<!-- suite2p_registration_register -->
<g id="node11" class="node"><title>suite2p_registration_register</title><style>.edge>path:hover{stroke-width:8}</style>
<polygon fill="#269b9b" stroke="black" points="316.09,-876.4 316.09,-902.297 285.576,-920.609 242.424,-920.609 211.91,-902.297 211.91,-876.4 242.424,-858.088 285.576,-858.088 316.09,-876.4"/>
<text text-anchor="middle" x="264" y="-897.848" font-family="Helvetica,sans-Serif" font-size="10.00" fill="#ffffff">suite2p.</text>
<text text-anchor="middle" x="264" y="-886.848" font-family="Helvetica,sans-Serif" font-size="10.00" fill="#ffffff">registration.</text>
<text text-anchor="middle" x="264" y="-875.848" font-family="Helvetica,sans-Serif" font-size="10.00" fill="#ffffff">register</text>
</g>
<!-- suite2p_registration_rigid&#45;&gt;suite2p_registration_register -->
<g id="edge18" class="edge"><title>suite2p_registration_rigid&#45;&gt;suite2p_registration_register</title><style>.edge>path:hover{stroke-width:8}</style>
<path fill="none" stroke="black" d="M270.863,-956.758C270.015,-948.552 269.084,-939.539 268.188,-930.871"/>
<polygon fill="#000000" stroke="black" points="271.669,-930.511 267.16,-920.923 264.707,-931.23 271.669,-930.511"/>
</g>
<!-- suite2p -->
<g id="node4" class="node"><title>suite2p</title><style>.edge>path:hover{stroke-width:8}</style>
<polygon fill="#06efef" stroke="black" points="218.668,-791.551 218.668,-806.463 200.703,-817.007 175.297,-817.007 157.332,-806.463 157.332,-791.551 175.297,-781.007 200.703,-781.007 218.668,-791.551"/>
<text text-anchor="middle" x="188" y="-796.507" font-family="Helvetica,sans-Serif" font-size="10.00" fill="#000000">suite2p</text>
</g>
<!-- suite2p&#45;&gt;suite2p_gui_reggui -->
<g id="edge2" class="edge"><title>suite2p&#45;&gt;suite2p_gui_reggui</title><style>.edge>path:hover{stroke-width:8}</style>
<path fill="none" stroke="black" d="M205.215,-783.425C217.316,-772.467 233.208,-756.562 244,-740.046 262.104,-712.343 275.974,-677.45 284.976,-650.92"/>
<polygon fill="#000000" stroke="black" points="288.376,-651.787 288.187,-641.194 281.728,-649.593 288.376,-651.787"/>
</g>
<!-- suite2p_detection_sourcery -->
<g id="node9" class="node"><title>suite2p_detection_sourcery</title><style>.edge>path:hover{stroke-width:8}</style>
<polygon fill="#38a8a8" stroke="black" points="197.314,-596.958 197.314,-622.855 170.77,-641.167 133.23,-641.167 106.686,-622.855 106.686,-596.958 133.23,-578.646 170.77,-578.646 197.314,-596.958"/>
<text text-anchor="middle" x="152" y="-618.406" font-family="Helvetica,sans-Serif" font-size="10.00" fill="#000000">suite2p.</text>
<text text-anchor="middle" x="152" y="-607.406" font-family="Helvetica,sans-Serif" font-size="10.00" fill="#000000">detection.</text>
<text text-anchor="middle" x="152" y="-596.406" font-family="Helvetica,sans-Serif" font-size="10.00" fill="#000000">sourcery</text>
</g>
<!-- suite2p&#45;&gt;suite2p_detection_sourcery -->
<g id="edge1" class="edge"><title>suite2p&#45;&gt;suite2p_detection_sourcery</title><style>.edge>path:hover{stroke-width:8}</style>
<path fill="none" stroke="black" d="M192.315,-780.806C197.512,-757.014 204.338,-712.961 194,-677.286 191.008,-666.963 185.878,-656.705 180.209,-647.45"/>
<polygon fill="#000000" stroke="black" points="183.046,-645.391 174.662,-638.914 177.177,-649.206 183.046,-645.391"/>
</g>
<!-- suite2p_gui_merge -->
<g id="node5" class="node"><title>suite2p_gui_merge</title><style>.edge>path:hover{stroke-width:8}</style>
<polygon fill="#1eaeae" stroke="black" points="194.067,-975.16 194.067,-1001.06 171.182,-1019.37 138.818,-1019.37 115.933,-1001.06 115.933,-975.16 138.818,-956.848 171.182,-956.848 194.067,-975.16"/>
<text text-anchor="middle" x="155" y="-996.608" font-family="Helvetica,sans-Serif" font-size="10.00" fill="#000000">suite2p.</text>
<text text-anchor="middle" x="155" y="-985.608" font-family="Helvetica,sans-Serif" font-size="10.00" fill="#000000">gui.</text>
<text text-anchor="middle" x="155" y="-974.608" font-family="Helvetica,sans-Serif" font-size="10.00" fill="#000000">merge</text>
</g>
<!-- suite2p_gui_masks -->
<g id="node18" class="node"><title>suite2p_gui_masks</title><style>.edge>path:hover{stroke-width:8}</style>
<polygon fill="#05dbdb" stroke="black" points="194.067,-876.4 194.067,-902.297 171.182,-920.609 138.818,-920.609 115.933,-902.297 115.933,-876.4 138.818,-858.088 171.182,-858.088 194.067,-876.4"/>
<text text-anchor="middle" x="155" y="-897.848" font-family="Helvetica,sans-Serif" font-size="10.00" fill="#000000">suite2p.</text>
<text text-anchor="middle" x="155" y="-886.848" font-family="Helvetica,sans-Serif" font-size="10.00" fill="#000000">gui.</text>
<text text-anchor="middle" x="155" y="-875.848" font-family="Helvetica,sans-Serif" font-size="10.00" fill="#000000">masks</text>
</g>
<!-- suite2p_gui_merge&#45;&gt;suite2p_gui_masks -->
<g id="edge12" class="edge"><title>suite2p_gui_merge&#45;&gt;suite2p_gui_masks</title><style>.edge>path:hover{stroke-width:8}</style>
<path fill="none" stroke="black" d="M148.685,-956.758C148.275,-948.642 148.155,-939.735 148.324,-931.154"/>
<polygon fill="#000000" stroke="black" points="151.83,-931.037 148.674,-920.923 144.834,-930.798 151.83,-931.037"/>
</g>
<!-- suite2p_run_s2p -->
<g id="node6" class="node"><title>suite2p_run_s2p</title><style>.edge>path:hover{stroke-width:8}</style>
<polygon fill="#16caca" stroke="black" points="246.067,-29.4664 246.067,-48.4556 223.182,-61.8831 190.818,-61.8831 167.933,-48.4556 167.933,-29.4664 190.818,-16.0389 223.182,-16.0389 246.067,-29.4664"/>
<text text-anchor="middle" x="207" y="-41.961" font-family="Helvetica,sans-Serif" font-size="10.00" fill="#000000">suite2p.</text>
<text text-anchor="middle" x="207" y="-30.961" font-family="Helvetica,sans-Serif" font-size="10.00" fill="#000000">run_s2p</text>
</g>
<!-- suite2p_run_s2p&#45;&gt;suite2p -->
<g id="edge19" class="edge"><title>suite2p_run_s2p&#45;&gt;suite2p</title><style>.edge>path:hover{stroke-width:8}</style>
<path fill="none" stroke="black" d="M215.652,-61.9797C226.016,-90.3857 242,-141.548 242,-186.922 242,-302.883 242,-302.883 242,-302.883 242,-497.989 234.726,-547.704 202,-740.046 200.266,-750.239 197.754,-761.301 195.335,-771.002"/>
<polygon fill="#000000" stroke="black" points="191.893,-770.332 192.788,-780.889 198.672,-772.078 191.893,-770.332"/>
</g>
<!-- suite2p_extraction -->
<g id="node7" class="node"><title>suite2p_extraction</title><style>.edge>path:hover{stroke-width:8}</style>
<polygon fill="#05e5e5" stroke="black" points="218.314,-292.388 218.314,-311.378 191.77,-324.805 154.23,-324.805 127.686,-311.378 127.686,-292.388 154.23,-278.961 191.77,-278.961 218.314,-292.388"/>
<text text-anchor="middle" x="173" y="-304.883" font-family="Helvetica,sans-Serif" font-size="10.00" fill="#000000">suite2p.</text>
<text text-anchor="middle" x="173" y="-293.883" font-family="Helvetica,sans-Serif" font-size="10.00" fill="#000000">extraction</text>
</g>
<!-- suite2p_io_nwb -->
<g id="node17" class="node"><title>suite2p_io_nwb</title><style>.edge>path:hover{stroke-width:8}</style>
<polygon fill="#3ab0b0" stroke="black" points="223.172,-180.466 223.172,-195.378 193.782,-205.922 152.218,-205.922 122.828,-195.378 122.828,-180.466 152.218,-169.922 193.782,-169.922 223.172,-180.466"/>
<text text-anchor="middle" x="173" y="-185.422" font-family="Helvetica,sans-Serif" font-size="10.00" fill="#000000">suite2p.io.nwb</text>
</g>
<!-- suite2p_extraction&#45;&gt;suite2p_io_nwb -->
<g id="edge6" class="edge"><title>suite2p_extraction&#45;&gt;suite2p_io_nwb</title><style>.edge>path:hover{stroke-width:8}</style>
<path fill="none" stroke="black" d="M173,-278.763C173,-260.887 173,-235.632 173,-216.449"/>
<polygon fill="#000000" stroke="black" points="176.5,-216.23 173,-206.23 169.5,-216.23 176.5,-216.23"/>
</g>
<!-- suite2p_extraction_masks -->
<g id="node8" class="node"><title>suite2p_extraction_masks</title><style>.edge>path:hover{stroke-width:8}</style>
<polygon fill="#31c4c4" stroke="black" points="223.406,-379.276 223.406,-405.173 195.636,-423.485 156.364,-423.485 128.594,-405.173 128.594,-379.276 156.364,-360.964 195.636,-360.964 223.406,-379.276"/>
<text text-anchor="middle" x="176" y="-400.724" font-family="Helvetica,sans-Serif" font-size="10.00" fill="#000000">suite2p.</text>
<text text-anchor="middle" x="176" y="-389.724" font-family="Helvetica,sans-Serif" font-size="10.00" fill="#000000">extraction.</text>
<text text-anchor="middle" x="176" y="-378.724" font-family="Helvetica,sans-Serif" font-size="10.00" fill="#000000">masks</text>
</g>
<!-- suite2p_extraction_masks&#45;&gt;suite2p_extraction -->
<g id="edge8" class="edge"><title>suite2p_extraction_masks&#45;&gt;suite2p_extraction</title><style>.edge>path:hover{stroke-width:8}</style>
<path fill="none" stroke="black" d="M174.968,-360.822C174.686,-352.54 174.381,-343.541 174.096,-335.159"/>
<polygon fill="#000000" stroke="black" points="177.588,-334.848 173.75,-324.972 170.592,-335.085 177.588,-334.848"/>
</g>
<!-- suite2p_detection -->
<g id="node13" class="node"><title>suite2p_detection</title><style>.edge>path:hover{stroke-width:8}</style>
<polygon fill="#23c8c8" stroke="black" points="194.722,-510.07 194.722,-529.06 169.696,-542.487 134.304,-542.487 109.278,-529.06 109.278,-510.07 134.304,-496.643 169.696,-496.643 194.722,-510.07"/>
<text text-anchor="middle" x="152" y="-522.565" font-family="Helvetica,sans-Serif" font-size="10.00" fill="#000000">suite2p.</text>
<text text-anchor="middle" x="152" y="-511.565" font-family="Helvetica,sans-Serif" font-size="10.00" fill="#000000">detection</text>
</g>
<!-- suite2p_detection_sourcery&#45;&gt;suite2p_detection -->
<g id="edge4" class="edge"><title>suite2p_detection_sourcery&#45;&gt;suite2p_detection</title><style>.edge>path:hover{stroke-width:8}</style>
<path fill="none" stroke="black" d="M152,-578.504C152,-570.222 152,-561.223 152,-552.841"/>
<polygon fill="#000000" stroke="black" points="155.5,-552.654 152,-542.654 148.5,-552.654 155.5,-552.654"/>
</g>
<!-- suite2p_gui_gui2p -->
<g id="node10" class="node"><title>suite2p_gui_gui2p</title><style>.edge>path:hover{stroke-width:8}</style>
<polygon fill="#267373" stroke="black" points="96.0674,-975.16 96.0674,-1001.06 73.1823,-1019.37 40.8177,-1019.37 17.9326,-1001.06 17.9326,-975.16 40.8177,-956.848 73.1823,-956.848 96.0674,-975.16"/>
<text text-anchor="middle" x="57" y="-996.608" font-family="Helvetica,sans-Serif" font-size="10.00" fill="#ffffff">suite2p.</text>
<text text-anchor="middle" x="57" y="-985.608" font-family="Helvetica,sans-Serif" font-size="10.00" fill="#ffffff">gui.</text>
<text text-anchor="middle" x="57" y="-974.608" font-family="Helvetica,sans-Serif" font-size="10.00" fill="#ffffff">gui2p</text>
</g>
<!-- suite2p_gui -->
<g id="node14" class="node"><title>suite2p_gui</title><style>.edge>path:hover{stroke-width:8}</style>
<polygon fill="#06f9f9" stroke="black" points="97.5582,-881.892 97.5582,-896.804 73.7998,-907.348 40.2002,-907.348 16.4418,-896.804 16.4418,-881.892 40.2002,-871.348 73.7998,-871.348 97.5582,-881.892"/>
<text text-anchor="middle" x="57" y="-886.848" font-family="Helvetica,sans-Serif" font-size="10.00" fill="#000000">suite2p.gui</text>
</g>
<!-- suite2p_gui_gui2p&#45;&gt;suite2p_gui -->
<g id="edge10" class="edge"><title>suite2p_gui_gui2p&#45;&gt;suite2p_gui</title><style>.edge>path:hover{stroke-width:8}</style>
<path fill="none" stroke="black" d="M57,-956.758C57,-944.156 57,-929.648 57,-917.414"/>
<polygon fill="#000000" stroke="black" points="60.5001,-917.352 57,-907.352 53.5001,-917.352 60.5001,-917.352"/>
</g>
<!-- suite2p_registration -->
<g id="node12" class="node"><title>suite2p_registration</title><style>.edge>path:hover{stroke-width:8}</style>
<polygon fill="#05e5e5" stroke="black" points="335.999,-789.513 335.999,-808.502 306.71,-821.929 265.29,-821.929 236.001,-808.502 236.001,-789.513 265.29,-776.085 306.71,-776.085 335.999,-789.513"/>
<text text-anchor="middle" x="286" y="-802.007" font-family="Helvetica,sans-Serif" font-size="10.00" fill="#000000">suite2p.</text>
<text text-anchor="middle" x="286" y="-791.007" font-family="Helvetica,sans-Serif" font-size="10.00" fill="#000000">registration</text>
</g>
<!-- suite2p_registration_register&#45;&gt;suite2p_registration -->
<g id="edge17" class="edge"><title>suite2p_registration_register&#45;&gt;suite2p_registration</title><style>.edge>path:hover{stroke-width:8}</style>
<path fill="none" stroke="black" d="M271.571,-857.946C273.657,-849.572 275.925,-840.465 278.032,-832.004"/>
<polygon fill="#000000" stroke="black" points="281.479,-832.646 280.499,-822.096 274.686,-830.954 281.479,-832.646"/>
</g>
<!-- suite2p_registration&#45;&gt;suite2p_registration_rigid -->
<g id="edge16" class="edge"><title>suite2p_registration&#45;&gt;suite2p_registration_rigid</title><style>.edge>path:hover{stroke-width:8}</style>
<path fill="none" stroke="black" d="M305.374,-822.06C313.075,-832.257 321.036,-844.976 325,-857.968 333.14,-884.647 333.974,-894.318 325,-920.728 321.203,-931.903 314.682,-942.668 307.549,-952.159"/>
<polygon fill="#000000" stroke="black" points="304.675,-950.149 301.175,-960.149 310.147,-954.514 304.675,-950.149"/>
</g>
<!-- suite2p_detection&#45;&gt;suite2p_extraction_masks -->
<g id="edge3" class="edge"><title>suite2p_detection&#45;&gt;suite2p_extraction_masks</title><style>.edge>path:hover{stroke-width:8}</style>
<path fill="none" stroke="black" d="M156.235,-496.445C159.566,-479.051 164.295,-454.353 168.292,-433.478"/>
<polygon fill="#000000" stroke="black" points="171.743,-434.065 170.186,-423.586 164.868,-432.749 171.743,-434.065"/>
</g>
<!-- suite2p_gui&#45;&gt;suite2p -->
<g id="edge9" class="edge"><title>suite2p_gui&#45;&gt;suite2p</title><style>.edge>path:hover{stroke-width:8}</style>
<path fill="none" stroke="black" d="M78.9265,-873.562C101.242,-858.513 135.907,-835.137 160.151,-818.788"/>
<polygon fill="#000000" stroke="black" points="162.235,-821.604 168.569,-813.111 158.321,-815.8 162.235,-821.604"/>
</g>
<!-- suite2p_detection_sparsedetect -->
<g id="node15" class="node"><title>suite2p_detection_sparsedetect</title><style>.edge>path:hover{stroke-width:8}</style>
<polygon fill="#3bcece" stroke="black" points="184.744,-695.718 184.744,-721.615 152.09,-739.927 105.91,-739.927 73.2561,-721.615 73.2561,-695.718 105.91,-677.406 152.09,-677.406 184.744,-695.718"/>
<text text-anchor="middle" x="129" y="-717.166" font-family="Helvetica,sans-Serif" font-size="10.00" fill="#000000">suite2p.</text>
<text text-anchor="middle" x="129" y="-706.166" font-family="Helvetica,sans-Serif" font-size="10.00" fill="#000000">detection.</text>
<text text-anchor="middle" x="129" y="-695.166" font-family="Helvetica,sans-Serif" font-size="10.00" fill="#000000">sparsedetect</text>
</g>
<!-- suite2p_detection_sparsedetect&#45;&gt;suite2p_detection_sourcery -->
<g id="edge5" class="edge"><title>suite2p_detection_sparsedetect&#45;&gt;suite2p_detection_sourcery</title><style>.edge>path:hover{stroke-width:8}</style>
<path fill="none" stroke="black" d="M136.214,-677.316C138.165,-669.11 140.307,-660.097 142.368,-651.429"/>
<polygon fill="#000000" stroke="black" points="145.825,-652.02 144.732,-641.481 139.015,-650.401 145.825,-652.02"/>
</g>
<!-- suite2p_io -->
<g id="node16" class="node"><title>suite2p_io</title><style>.edge>path:hover{stroke-width:8}</style>
<polygon fill="#05d1d1" stroke="black" points="210.686,-108.466 210.686,-123.378 188.61,-133.922 157.39,-133.922 135.314,-123.378 135.314,-108.466 157.39,-97.922 188.61,-97.922 210.686,-108.466"/>
<text text-anchor="middle" x="173" y="-113.422" font-family="Helvetica,sans-Serif" font-size="10.00" fill="#000000">suite2p.io</text>
</g>
<!-- suite2p_io&#45;&gt;suite2p_run_s2p -->
<g id="edge14" class="edge"><title>suite2p_io&#45;&gt;suite2p_run_s2p</title><style>.edge>path:hover{stroke-width:8}</style>
<path fill="none" stroke="black" d="M180.715,-97.9122C184.292,-90.0255 188.661,-80.3943 192.801,-71.2658"/>
<polygon fill="#000000" stroke="black" points="196.047,-72.5817 196.991,-62.029 189.672,-69.6902 196.047,-72.5817"/>
</g>
<!-- suite2p_io_nwb&#45;&gt;suite2p_io -->
<g id="edge15" class="edge"><title>suite2p_io_nwb&#45;&gt;suite2p_io</title><style>.edge>path:hover{stroke-width:8}</style>
<path fill="none" stroke="black" d="M173,-169.619C173,-161.905 173,-152.634 173,-144.034"/>
<polygon fill="#000000" stroke="black" points="176.5,-144.026 173,-134.026 169.5,-144.026 176.5,-144.026"/>
</g>
<!-- suite2p_gui_masks&#45;&gt;suite2p_gui_merge -->
<g id="edge11" class="edge"><title>suite2p_gui_masks&#45;&gt;suite2p_gui_merge</title><style>.edge>path:hover{stroke-width:8}</style>
<path fill="none" stroke="black" d="M161.326,-920.923C161.731,-929.055 161.846,-937.966 161.671,-946.541"/>
<polygon fill="#000000" stroke="black" points="158.166,-946.642 161.315,-956.758 165.161,-946.886 158.166,-946.642"/>
</g>
<!-- suite2p_extraction_extract -->
<g id="node19" class="node"><title>suite2p_extraction_extract</title><style>.edge>path:hover{stroke-width:8}</style>
<polygon fill="#339999" stroke="black" points="110.406,-379.276 110.406,-405.173 82.636,-423.485 43.364,-423.485 15.5945,-405.173 15.5945,-379.276 43.364,-360.964 82.636,-360.964 110.406,-379.276"/>
<text text-anchor="middle" x="63" y="-400.724" font-family="Helvetica,sans-Serif" font-size="10.00" fill="#ffffff">suite2p.</text>
<text text-anchor="middle" x="63" y="-389.724" font-family="Helvetica,sans-Serif" font-size="10.00" fill="#ffffff">extraction.</text>
<text text-anchor="middle" x="63" y="-378.724" font-family="Helvetica,sans-Serif" font-size="10.00" fill="#ffffff">extract</text>
</g>
<!-- suite2p_extraction_extract&#45;&gt;suite2p_extraction -->
<g id="edge7" class="edge"><title>suite2p_extraction_extract&#45;&gt;suite2p_extraction</title><style>.edge>path:hover{stroke-width:8}</style>
<path fill="none" stroke="black" d="M92.7676,-367.318C107.585,-355.418 125.521,-341.013 140.674,-328.844"/>
<polygon fill="#000000" stroke="black" points="143.163,-331.334 148.769,-322.343 138.78,-325.876 143.163,-331.334"/>
</g>
</g>
</svg>
